<svg width="420" height="420" viewBox="0 0 420 420" fill="none" xmlns="http://www.w3.org/2000/svg">
<path d="M74.8012 367.164C148.1 405.804 266.943 405.804 340.241 367.164C413.54 328.524 413.54 265.843 340.241 227.195C266.943 188.546 148.1 188.555 74.8012 227.195C1.50277 265.835 1.49437 328.515 74.8012 367.164Z" fill="#F5F5F5"/>
<path d="M137.349 300.132L139.549 297.511L72.8786 259.014L68.3594 261.618L92.039 275.293L69.3002 288.423L45.419 274.63L40.9082 277.242L109.15 316.638L109.864 315.781L110.225 315.983L136.399 300.905L136.609 301.023L136.987 300.561L137.55 300.241L137.349 300.132Z" fill="#E0E0E0"/>
<path d="M300.225 338.546C320.739 338.546 337.37 330.622 337.37 320.847C337.37 311.072 320.739 303.148 300.225 303.148C279.71 303.148 263.08 311.072 263.08 320.847C263.08 330.622 279.71 338.546 300.225 338.546Z" fill="#E0E0E0"/>
<path d="M188.018 375.026C208.532 375.026 225.163 367.102 225.163 357.328C225.163 347.553 208.532 339.629 188.018 339.629C167.503 339.629 150.873 347.553 150.873 357.328C150.873 367.102 167.503 375.026 188.018 375.026Z" fill="#E0E0E0"/>
<path d="M329.843 342.955C337.05 347.155 348.734 347.155 355.942 342.955C363.149 338.755 363.149 332.035 355.942 327.886C348.734 323.736 337.05 323.728 329.843 327.886C322.636 332.044 322.636 338.797 329.843 342.955Z" fill="#E0E0E0"/>
<path d="M75.4665 350.49C85.6588 350.49 93.9213 345.722 93.9213 339.839C93.9213 333.957 85.6588 329.188 75.4665 329.188C65.2742 329.188 57.0117 333.957 57.0117 339.839C57.0117 345.722 65.2742 350.49 75.4665 350.49Z" fill="#E0E0E0"/>
<path d="M110.039 159.163L72.6427 261.03C72.5196 261.338 72.286 261.59 71.9875 261.735C71.4594 262.004 70.875 262.145 70.2823 262.145C69.6895 262.145 69.1052 262.004 68.5771 261.735C68.4063 261.655 68.2553 261.538 68.1348 261.393C68.0143 261.248 67.9273 261.078 67.8799 260.895C67.863 260.804 67.863 260.71 67.8799 260.618C67.8887 260.38 67.9341 260.145 68.0143 259.921L105.537 157.5C105.642 157.195 105.807 156.914 106.022 156.674C106.237 156.434 106.498 156.239 106.789 156.101C107.081 155.963 107.397 155.885 107.719 155.87C108.041 155.856 108.362 155.907 108.665 156.019C108.967 156.131 109.244 156.302 109.479 156.522C109.714 156.743 109.903 157.008 110.034 157.303C110.165 157.597 110.236 157.915 110.243 158.237C110.25 158.56 110.192 158.88 110.073 159.18L110.039 159.163Z" fill="#37474F"/>
<path d="M60.043 229.252L97.5742 250.924" stroke="#37474F" stroke-width="6" stroke-miterlimit="10"/>
<path d="M87.334 213.494L124.874 235.166" stroke="#37474F" stroke-width="6" stroke-miterlimit="10"/>
<path d="M79.5312 152.166L99.5485 140.607C100.286 140.13 101.131 139.843 102.008 139.774C102.884 139.706 103.764 139.857 104.567 140.214C105.37 140.571 106.072 141.122 106.608 141.819C107.144 142.516 107.498 143.335 107.638 144.203L140.868 299.67C140.894 299.774 140.908 299.881 140.91 299.989C140.923 300.101 140.923 300.213 140.91 300.325C140.862 300.507 140.775 300.677 140.654 300.822C140.534 300.967 140.383 301.084 140.213 301.165C139.685 301.434 139.1 301.575 138.508 301.575C137.915 301.575 137.331 301.434 136.802 301.165C136.504 301.009 136.269 300.754 136.139 300.443C136.136 300.395 136.136 300.347 136.139 300.3L102.917 145.211C102.894 144.982 102.782 144.771 102.606 144.623C102.494 144.606 102.379 144.612 102.27 144.641C102.16 144.67 102.057 144.721 101.968 144.791L81.9421 156.349" fill="#455A64"/>
<path d="M112.199 300.72L100.01 293.681C99.7975 293.543 99.6205 293.357 99.4935 293.138C99.3664 292.919 99.2931 292.674 99.2793 292.421V292.135C99.2917 291.882 99.3645 291.636 99.4917 291.416C99.6188 291.197 99.7966 291.012 100.01 290.875L129.259 273.983C129.485 273.867 129.736 273.807 129.99 273.807C130.244 273.807 130.494 273.867 130.72 273.983L142.909 281.022C143.121 281.16 143.298 281.346 143.425 281.565C143.552 281.784 143.625 282.029 143.64 282.282V282.576C143.625 282.829 143.552 283.074 143.425 283.293C143.298 283.512 143.121 283.698 142.909 283.836L113.66 300.72C113.434 300.836 113.183 300.896 112.929 300.896C112.675 300.896 112.425 300.836 112.199 300.72Z" fill="#821717"/>
<path opacity="0.1" d="M99.4977 291.43C99.3633 291.647 99.288 291.896 99.2793 292.152V292.438C99.2931 292.69 99.3664 292.936 99.4935 293.155C99.6205 293.374 99.7975 293.56 100.01 293.698L112.199 300.72C112.423 300.84 112.675 300.901 112.929 300.896V299.174L99.4977 291.43Z" fill="black"/>
<path opacity="0.15" d="M112.93 299.191V300.913C113.184 300.917 113.436 300.857 113.66 300.736L128.285 292.336L142.909 283.894C143.121 283.757 143.298 283.571 143.425 283.352C143.552 283.133 143.626 282.887 143.64 282.634V282.34C143.631 282.087 143.556 281.841 143.422 281.626L112.93 299.191Z" fill="black"/>
<path d="M106.915 276.015L94.7185 268.976C94.5089 268.836 94.3345 268.65 94.2092 268.431C94.0838 268.212 94.0109 267.968 93.9961 267.716V267.422C94.0109 267.17 94.0838 266.926 94.2092 266.707C94.3345 266.489 94.5089 266.302 94.7185 266.162L123.976 249.278C124.2 249.162 124.45 249.102 124.702 249.102C124.955 249.102 125.204 249.162 125.429 249.278L137.626 256.317C137.837 256.456 138.012 256.642 138.138 256.861C138.263 257.08 138.335 257.325 138.348 257.577V257.88C138.337 258.132 138.266 258.378 138.14 258.598C138.015 258.817 137.838 259.003 137.626 259.14L108.36 276.015C108.136 276.13 107.889 276.189 107.638 276.189C107.387 276.189 107.139 276.13 106.915 276.015Z" fill="#821717"/>
<path opacity="0.1" d="M94.2061 266.708C94.0753 266.924 94.0029 267.17 93.9961 267.422V267.716C94.0109 267.968 94.0838 268.213 94.2092 268.431C94.3345 268.65 94.5089 268.837 94.7185 268.976L106.915 276.016C107.139 276.137 107.391 276.198 107.646 276.192V274.47L94.2061 266.708Z" fill="black"/>
<path opacity="0.15" d="M107.646 274.47V276.192C107.898 276.196 108.147 276.135 108.369 276.015L123.002 267.615L137.626 259.165C137.839 259.028 138.015 258.842 138.141 258.623C138.266 258.404 138.338 258.157 138.348 257.905V257.619C138.343 257.367 138.27 257.121 138.138 256.905L107.646 274.47Z" fill="black"/>
<path d="M101.64 251.294L89.4437 244.255C89.2316 244.117 89.0549 243.931 88.9279 243.712C88.801 243.493 88.7273 243.248 88.7129 242.995V242.701C88.7273 242.448 88.801 242.203 88.9279 241.984C89.0549 241.765 89.2316 241.579 89.4437 241.441L118.701 224.557C118.926 224.441 119.175 224.381 119.427 224.381C119.68 224.381 119.929 224.441 120.154 224.557L132.342 231.596C132.555 231.734 132.732 231.919 132.859 232.138C132.986 232.357 133.06 232.603 133.073 232.856V233.142C133.061 233.395 132.988 233.641 132.861 233.86C132.734 234.08 132.556 234.265 132.342 234.402L103.094 251.294C102.869 251.41 102.62 251.47 102.367 251.47C102.114 251.47 101.865 251.41 101.64 251.294Z" fill="#821717"/>
<path opacity="0.1" d="M88.9215 241.987C88.7885 242.202 88.7133 242.448 88.7031 242.701V242.995C88.7176 243.247 88.7912 243.493 88.9182 243.712C89.0451 243.931 89.2218 244.117 89.4339 244.255L95.5323 247.774L101.631 251.294C101.852 251.415 102.101 251.476 102.353 251.47V249.74L88.9215 241.987Z" fill="black"/>
<path opacity="0.15" d="M102.354 249.74V251.471C102.608 251.476 102.86 251.415 103.084 251.294L117.709 242.852L132.333 234.402C132.547 234.265 132.724 234.08 132.852 233.861C132.979 233.641 133.052 233.395 133.064 233.142V232.856C133.053 232.602 132.981 232.354 132.854 232.134L102.354 249.74Z" fill="black"/>
<path d="M96.3391 226.573L84.1507 219.534C83.9386 219.396 83.7619 219.21 83.635 218.991C83.508 218.772 83.4344 218.526 83.4199 218.274V217.98C83.4344 217.727 83.508 217.481 83.635 217.262C83.7619 217.044 83.9386 216.858 84.1507 216.72L113.4 199.836C113.624 199.72 113.873 199.66 114.126 199.66C114.379 199.66 114.628 199.72 114.853 199.836L127.05 206.875C127.263 207.011 127.441 207.197 127.568 207.416C127.695 207.635 127.768 207.882 127.78 208.135V208.42C127.767 208.673 127.693 208.919 127.566 209.138C127.439 209.357 127.262 209.543 127.05 209.68L97.7923 226.573C97.567 226.687 97.3181 226.746 97.0657 226.746C96.8133 226.746 96.5645 226.687 96.3391 226.573Z" fill="#821717"/>
<path opacity="0.15" d="M97.0703 225.019V226.749C97.3223 226.754 97.5711 226.693 97.7927 226.573L112.426 218.131L127.05 209.681C127.262 209.543 127.44 209.357 127.567 209.138C127.694 208.919 127.767 208.673 127.781 208.421V208.135C127.772 207.879 127.697 207.63 127.562 207.413L97.0703 225.019Z" fill="black"/>
<path opacity="0.1" d="M83.6299 217.266C83.5028 217.483 83.4307 217.728 83.4199 217.98V218.274C83.4344 218.526 83.508 218.772 83.635 218.991C83.7619 219.21 83.9386 219.396 84.1507 219.534L96.3391 226.573C96.5633 226.694 96.8151 226.755 97.0699 226.749V225.019L83.6299 217.266Z" fill="black"/>
<path d="M91.0561 201.852L70.7868 190.151C70.5758 190.012 70.4004 189.826 70.2749 189.607C70.1494 189.388 70.0773 189.143 70.0645 188.891V188.605C70.0779 188.353 70.1503 188.108 70.2758 187.889C70.4012 187.671 70.5763 187.484 70.7868 187.345L100.044 170.453C100.269 170.337 100.518 170.277 100.771 170.277C101.023 170.277 101.273 170.337 101.497 170.453L121.8 182.154C122.011 182.293 122.186 182.479 122.312 182.698C122.438 182.917 122.51 183.162 122.522 183.414V183.7C122.508 183.951 122.435 184.196 122.309 184.415C122.184 184.633 122.01 184.82 121.8 184.96L92.5092 201.852C92.2825 201.961 92.0342 202.017 91.7826 202.017C91.5311 202.017 91.2828 201.961 91.0561 201.852Z" fill="#821717"/>
<path opacity="0.15" d="M91.7793 200.298V202.02C92.0333 202.028 92.2851 201.97 92.5101 201.852L107.134 193.401L121.801 184.959C122.011 184.82 122.185 184.633 122.31 184.414C122.436 184.196 122.509 183.951 122.523 183.699V183.405C122.516 183.153 122.444 182.907 122.313 182.691L91.7793 200.298Z" fill="black"/>
<path opacity="0.1" d="M70.2745 187.883C70.1473 188.103 70.0752 188.351 70.0645 188.605V188.891C70.0773 189.143 70.1494 189.388 70.2749 189.607C70.4004 189.826 70.5758 190.012 70.7868 190.151L91.0561 201.852C91.2783 201.97 91.5272 202.027 91.7785 202.02V200.298L70.2745 187.883Z" fill="black"/>
<path d="M82.7819 174.922L45.3599 276.671L45.2759 276.898C45.132 277.145 44.9228 277.349 44.6711 277.486C44.1404 277.751 43.5551 277.889 42.9617 277.889C42.3683 277.889 41.7831 277.751 41.2523 277.486C41.0832 277.403 40.9336 277.285 40.8134 277.141C40.6932 276.996 40.6051 276.827 40.5551 276.646C40.5467 276.553 40.5467 276.461 40.5551 276.368C40.5653 276.127 40.6135 275.889 40.6979 275.663L78.2459 173.258C78.3509 172.954 78.5157 172.673 78.7308 172.433C78.9458 172.192 79.2066 171.998 79.498 171.86C79.7894 171.722 80.1054 171.643 80.4275 171.629C80.7495 171.615 81.0712 171.666 81.3735 171.778C81.6758 171.89 81.9527 172.061 82.1879 172.281C82.4231 172.502 82.6118 172.767 82.743 173.062C82.8742 173.356 82.9453 173.674 82.952 173.996C82.9586 174.318 82.9008 174.639 82.7819 174.938V174.922Z" fill="#37474F"/>
<path d="M81.9413 156.349C81.3638 156.742 80.9076 157.288 80.6241 157.926C80.3406 158.565 80.2411 159.269 80.3369 159.961L113.576 315.42C113.609 315.543 113.626 315.67 113.626 315.798C113.635 315.887 113.635 315.977 113.626 316.067C113.577 316.249 113.489 316.418 113.369 316.563C113.249 316.708 113.099 316.825 112.929 316.907C112.401 317.176 111.816 317.316 111.224 317.316C110.631 317.316 110.047 317.176 109.519 316.907C109.226 316.754 108.993 316.509 108.855 316.21L108.813 316.008L75.5993 160.978C75.2992 159.286 75.5115 157.543 76.209 155.973C76.9065 154.403 78.0573 153.077 79.5137 152.166" fill="#455A64"/>
<path d="M91.2159 313.37L60.3879 312.95L60.1191 338.15C60.1191 340.435 61.5807 342.728 64.5711 344.501C70.5519 348.037 80.3127 348.146 86.3691 344.736C89.4267 343.014 90.9555 340.729 90.9555 338.427L91.2159 313.37Z" fill="#37474F"/>
<path d="M64.974 306.709C58.9176 310.119 58.8588 315.756 64.8396 319.309C70.8204 322.862 80.5812 322.955 86.6796 319.544C92.778 316.134 92.7948 310.497 86.814 306.944C80.8332 303.391 71.0304 303.299 64.974 306.709Z" fill="#455A64"/>
<path d="M89.8801 313.269C89.8736 313.679 89.7998 314.085 89.6617 314.47C89.1913 315.915 87.9313 317.259 85.9657 318.368C82.7943 319.993 79.2627 320.788 75.7009 320.678C72.1428 320.718 68.6331 319.851 65.5033 318.158C63.8814 317.337 62.6127 315.955 61.9333 314.269C61.7862 313.854 61.7123 313.416 61.7149 312.975C61.7149 311.094 63.1261 309.279 65.6209 307.893C68.7792 306.248 72.31 305.449 75.8689 305.575C79.4338 305.522 82.952 306.39 86.0833 308.095C88.5697 309.556 89.8801 311.388 89.8801 313.269Z" fill="#263238"/>
<path d="M89.6776 314.471C89.2072 315.916 87.9472 317.26 85.9816 318.368C82.8102 319.993 79.2787 320.788 75.7168 320.678C72.1587 320.719 68.649 319.851 65.5192 318.158C63.8973 317.337 62.6286 315.955 61.9492 314.269C62.6483 312.559 63.9645 311.174 65.6368 310.388C68.7972 308.748 72.3259 307.947 75.8848 308.062C79.4488 308.017 82.9649 308.885 86.0992 310.582C87.7211 311.405 88.9916 312.786 89.6776 314.471Z" fill="#821717"/>
<path d="M82.3779 322.803C83.0499 322.417 83.5959 322.744 83.5875 323.517C83.5559 323.941 83.4245 324.352 83.2041 324.715C82.9837 325.079 82.6804 325.385 82.3191 325.609C81.6387 325.995 81.1011 325.668 81.1095 324.895C81.1397 324.471 81.2705 324.06 81.4911 323.696C81.7116 323.332 82.0156 323.026 82.3779 322.803Z" fill="#263238"/>
<path d="M60.3368 317.377C58.6568 320.737 55.2968 328.667 59.648 331.901C59.8328 332.035 60.0008 332.153 60.1856 332.27V333.883C59.7488 333.614 59.2952 333.312 58.8584 332.993C52.3148 328.146 59.6984 315.697 60.0176 315.176C60.0989 315.037 60.2315 314.934 60.3872 314.891L60.3368 317.377Z" fill="#E0E0E0"/>
<path d="M82.9488 324.525C82.764 324.912 78.0012 334.017 70.164 335.849C69.2811 336.062 68.3759 336.17 67.4676 336.168C64.866 336.119 62.3329 335.327 60.168 333.883V332.27C63.402 334.521 66.6612 335.294 69.8448 334.555C77.0772 332.875 81.7056 323.988 81.7392 323.904C81.7799 323.826 81.8357 323.756 81.9034 323.699C81.9711 323.642 82.0493 323.6 82.1336 323.573C82.2178 323.546 82.3065 323.537 82.3945 323.545C82.4825 323.552 82.5681 323.577 82.6464 323.618C82.7278 323.656 82.8007 323.71 82.8605 323.776C82.9203 323.843 82.9658 323.921 82.9942 324.006C83.0225 324.091 83.0331 324.181 83.0253 324.271C83.0175 324.36 82.9914 324.447 82.9488 324.525Z" fill="#E0E0E0"/>
<path d="M146.94 236.082L143.748 234.242C143.22 233.896 142.781 233.431 142.466 232.883C142.151 232.336 141.968 231.723 141.934 231.092V85.5792C141.967 84.9484 142.149 84.3344 142.464 83.7871C142.779 83.2398 143.219 82.7745 143.748 82.4292L249.302 21.4872C249.866 21.2016 250.489 21.0527 251.121 21.0527C251.753 21.0527 252.376 21.2016 252.94 21.4872L256.123 23.3268C256.654 23.6712 257.095 24.136 257.412 24.6834C257.729 25.2308 257.912 25.8453 257.946 26.4768V171.998C257.912 172.63 257.729 173.244 257.412 173.792C257.095 174.339 256.654 174.804 256.123 175.148L150.577 236.082C150.014 236.368 149.39 236.516 148.759 236.516C148.127 236.516 147.504 236.368 146.94 236.082Z" fill="#821717"/>
<path opacity="0.4" d="M257.921 26.1745C257.795 25.2337 257.03 24.8893 256.123 25.4185L150.569 86.3605C150.034 86.6997 149.592 87.1675 149.284 87.7213L142.463 83.7817C142.768 83.226 143.211 82.7576 143.748 82.4209L249.294 21.4789C249.858 21.1933 250.481 21.0444 251.113 21.0444C251.745 21.0444 252.368 21.1933 252.931 21.4789L256.123 23.3185C256.61 23.6385 257.022 24.0589 257.332 24.5516C257.642 25.0443 257.843 25.5976 257.921 26.1745Z" fill="white"/>
<path opacity="0.1" d="M150.149 236.267C149.629 236.459 149.075 236.542 148.522 236.51C147.968 236.478 147.427 236.332 146.932 236.082L143.749 234.243C143.218 233.898 142.777 233.433 142.46 232.886C142.143 232.339 141.96 231.724 141.926 231.093V85.5709C141.951 84.9387 142.136 84.323 142.463 83.7817L149.284 87.7213C148.959 88.2631 148.777 88.8789 148.755 89.5105V235.032C148.755 236.04 149.351 236.511 150.149 236.267Z" fill="black"/>
<path d="M266.188 140.717C266.053 140.656 265.904 140.631 265.756 140.646C265.609 140.661 265.468 140.714 265.348 140.801L261.064 143.64C260.789 143.81 260.459 143.864 260.144 143.792C259.83 143.72 259.557 143.526 259.384 143.254C259.126 142.897 258.846 142.557 258.544 142.237C258.293 141.974 258.115 141.649 258.028 141.295C257.941 140.942 257.948 140.572 258.048 140.221L264.768 135.937L259.728 133.031C259.625 132.973 259.515 132.927 259.4 132.897L256.192 132.183C255.84 132.12 255.477 132.167 255.152 132.317C254.828 132.468 254.557 132.714 254.377 133.023L251.37 138.76C250.957 139.429 250.306 139.918 249.547 140.129L249.362 140.188C249.492 139.752 249.582 139.305 249.631 138.852L244.591 135.929C244.432 135.844 244.249 135.813 244.071 135.841C243.892 135.868 243.727 135.952 243.6 136.08L238.804 139.852C238.514 140.105 238.283 140.418 238.125 140.769C237.967 141.12 237.886 141.5 237.888 141.885L238.174 146.454C238.172 147.253 237.91 148.028 237.426 148.663C236.645 149.604 235.897 150.587 235.2 151.612C234.971 151.913 234.676 152.158 234.339 152.33C234.001 152.501 233.63 152.595 233.251 152.603L230.16 152.452C229.794 152.453 229.435 152.554 229.122 152.745C228.809 152.936 228.555 153.21 228.388 153.535L225.49 160.037C225.365 160.313 225.347 160.625 225.438 160.913C225.53 161.202 225.724 161.446 225.985 161.599L229.404 163.573C229.517 163.853 229.544 164.16 229.48 164.455C229.248 165.481 229.072 166.519 228.95 167.563C228.825 168.356 228.462 169.091 227.909 169.672L223.658 173.578C223.392 173.852 223.189 174.182 223.066 174.543C222.943 174.905 222.901 175.29 222.944 175.669L223.742 180.306C223.755 180.434 223.796 180.557 223.863 180.666C223.93 180.775 224.021 180.868 224.129 180.936L229.169 183.859L229.236 178.055C229.511 177.885 229.841 177.831 230.155 177.903C230.47 177.976 230.743 178.169 230.916 178.441C231.17 178.801 231.451 179.14 231.756 179.458C232.006 179.722 232.184 180.047 232.272 180.4C232.361 180.753 232.356 181.123 232.26 181.474L230.16 187.32C230.065 187.552 230.055 187.81 230.131 188.048C230.208 188.287 230.367 188.49 230.58 188.622L235.62 191.545L236.998 187.765L238.955 182.91C239.365 182.241 240.013 181.752 240.769 181.541C241.44 181.364 242.1 181.146 242.743 180.886C242.887 180.819 243.043 180.784 243.202 180.784C243.36 180.784 243.517 180.818 243.661 180.885C243.804 180.951 243.932 181.048 244.035 181.168C244.137 181.289 244.213 181.43 244.255 181.583L245.339 185.17C245.4 185.402 245.547 185.603 245.75 185.733L250.832 188.656L249.942 183.045L251.496 181.818C251.785 181.565 252.016 181.252 252.172 180.901C252.329 180.55 252.408 180.17 252.403 179.785L252.118 175.216C252.117 174.417 252.38 173.641 252.865 173.007C253.655 172.066 254.839 171.562 255.536 170.545C255.931 169.966 256.376 169.033 257.048 169.067L260.131 169.218C260.498 169.218 260.857 169.117 261.17 168.926C261.483 168.735 261.737 168.461 261.904 168.135L264.81 161.625C264.877 161.475 264.913 161.313 264.916 161.149C264.919 160.985 264.89 160.823 264.83 160.67C264.77 160.518 264.68 160.379 264.565 160.261C264.451 160.144 264.314 160.051 264.163 159.987L261.643 158.92C261.338 158.771 261.091 158.526 260.939 158.222C260.787 157.918 260.739 157.573 260.803 157.24C261.037 156.214 261.217 155.177 261.341 154.132C261.459 153.339 261.82 152.603 262.374 152.023L266.633 148.117C267.018 147.722 267.263 147.212 267.33 146.664L271.194 143.657L266.188 140.717ZM246.868 170.713C241.66 174.796 236.687 173.687 235.746 168.193C234.805 162.7 239.056 155.787 244.255 151.696C249.455 147.605 253.638 147.916 254.579 153.376C255.52 158.836 252.084 166.623 246.884 170.713H246.868Z" fill="#263238"/>
<path d="M227.892 169.68L223.692 173.544C223.364 173.876 223.139 174.296 223.045 174.754L229.286 178.366V178.03C229.561 177.86 229.891 177.806 230.205 177.878C230.52 177.95 230.793 178.144 230.966 178.416L236.989 174.939L227.892 169.68Z" fill="#455A64"/>
<path d="M238.609 157.97C239.087 157.232 239.602 156.52 240.155 155.837L234.157 152.376C233.892 152.491 233.607 152.554 233.317 152.561L230.226 152.41C229.758 152.402 229.304 152.566 228.949 152.872L238.189 158.197L238.609 157.97Z" fill="#455A64"/>
<path d="M271.226 143.64C271.09 143.581 270.94 143.559 270.793 143.577C270.645 143.594 270.505 143.651 270.386 143.741L266.136 146.538C265.861 146.705 265.531 146.758 265.217 146.686C264.904 146.614 264.63 146.422 264.456 146.151C264.203 145.791 263.923 145.451 263.616 145.135C263.364 144.87 263.186 144.544 263.099 144.189C263.012 143.834 263.02 143.462 263.12 143.111L263.524 142.027L265.346 140.826C265.471 140.731 265.62 140.673 265.775 140.658C265.931 140.643 266.088 140.672 266.228 140.742L271.226 143.64Z" fill="#455A64"/>
<path d="M258.669 142.38C258.619 142.33 258.577 142.263 258.526 142.204C258.276 141.94 258.098 141.615 258.011 141.262C257.924 140.908 257.931 140.538 258.031 140.188L264.751 135.904L259.711 132.997C259.608 132.939 259.498 132.894 259.383 132.863L256.174 132.149C255.822 132.086 255.46 132.134 255.135 132.284C254.811 132.434 254.54 132.68 254.36 132.989L251.353 138.726C251.178 139.028 250.944 139.291 250.664 139.499L257.468 143.43L258.669 142.38Z" fill="#455A64"/>
<path d="M238.047 141.07L244.288 144.673L249.429 139.969C249.525 139.591 249.595 139.206 249.639 138.818L244.599 135.895C244.435 135.812 244.248 135.786 244.068 135.819C243.887 135.853 243.723 135.944 243.599 136.08L238.803 139.852C238.438 140.176 238.176 140.599 238.047 141.07Z" fill="#455A64"/>
<path d="M272.428 148.915L271.63 144.278C271.626 144.133 271.581 143.992 271.5 143.872C271.419 143.751 271.305 143.656 271.172 143.598C271.039 143.54 270.892 143.521 270.749 143.543C270.605 143.565 270.471 143.628 270.362 143.724L266.111 146.521C265.837 146.691 265.507 146.745 265.192 146.673C264.878 146.601 264.604 146.407 264.431 146.135C264.179 145.777 263.898 145.44 263.591 145.127C263.341 144.861 263.163 144.535 263.075 144.18C262.987 143.826 262.991 143.455 263.087 143.102L265.255 137.222C265.315 137.075 265.341 136.917 265.333 136.758C265.324 136.6 265.281 136.445 265.205 136.305C265.13 136.165 265.024 136.044 264.896 135.95C264.768 135.856 264.621 135.791 264.465 135.761L261.265 135.047C260.913 134.983 260.549 135.03 260.225 135.18C259.9 135.33 259.63 135.577 259.45 135.887L256.435 141.624C256.024 142.293 255.376 142.782 254.62 142.993C253.949 143.17 253.29 143.389 252.646 143.648C252.503 143.717 252.346 143.753 252.187 143.753C252.028 143.754 251.871 143.72 251.727 143.654C251.583 143.587 251.455 143.49 251.352 143.369C251.25 143.247 251.176 143.105 251.134 142.951L250.051 139.364C250.015 139.226 249.945 139.099 249.847 138.996C249.749 138.892 249.626 138.815 249.489 138.772C249.353 138.729 249.208 138.722 249.068 138.75C248.928 138.779 248.798 138.843 248.69 138.936L243.893 142.708C243.605 142.961 243.374 143.274 243.217 143.625C243.061 143.976 242.982 144.356 242.986 144.74L243.272 149.31C243.271 150.108 243.008 150.884 242.524 151.519C241.735 152.46 240.995 153.443 240.29 154.468C240.063 154.771 239.769 155.019 239.431 155.191C239.093 155.363 238.72 155.454 238.341 155.459L235.258 155.308C234.896 155.315 234.542 155.422 234.236 155.616C233.929 155.81 233.682 156.084 233.519 156.408L230.571 162.96C230.498 163.112 230.456 163.277 230.45 163.446C230.443 163.614 230.47 163.783 230.531 163.94C230.592 164.097 230.684 164.241 230.802 164.361C230.92 164.482 231.062 164.576 231.218 164.64L233.738 165.707C234.043 165.856 234.291 166.101 234.442 166.405C234.594 166.708 234.642 167.053 234.578 167.387C234.344 168.413 234.164 169.45 234.04 170.495C233.923 171.288 233.562 172.025 233.007 172.603L228.748 176.509C228.482 176.783 228.279 177.113 228.156 177.475C228.032 177.836 227.991 178.221 228.034 178.601L228.874 183.246C228.88 183.39 228.926 183.531 229.008 183.65C229.089 183.769 229.203 183.863 229.336 183.92C229.469 183.977 229.615 183.995 229.758 183.973C229.901 183.95 230.034 183.887 230.143 183.792L234.393 180.995C234.668 180.827 234.998 180.774 235.312 180.846C235.626 180.919 235.899 181.11 236.073 181.381C236.33 181.738 236.611 182.078 236.913 182.398C237.165 182.663 237.343 182.989 237.43 183.344C237.517 183.699 237.509 184.071 237.409 184.422L235.241 190.302C235.181 190.449 235.155 190.608 235.163 190.766C235.172 190.925 235.215 191.08 235.291 191.219C235.366 191.359 235.472 191.48 235.6 191.575C235.728 191.669 235.875 191.733 236.031 191.764L239.24 192.478C239.592 192.54 239.955 192.493 240.279 192.343C240.604 192.193 240.874 191.946 241.054 191.638L244.061 185.9C244.477 185.232 245.127 184.744 245.884 184.531C246.557 184.358 247.216 184.139 247.858 183.876C248.002 183.809 248.158 183.775 248.317 183.774C248.475 183.774 248.632 183.808 248.776 183.875C248.919 183.941 249.047 184.038 249.15 184.158C249.253 184.279 249.328 184.421 249.37 184.573L250.454 188.16C250.49 188.297 250.56 188.422 250.658 188.525C250.755 188.627 250.877 188.703 251.012 188.746C251.147 188.789 251.291 188.797 251.43 188.769C251.568 188.742 251.698 188.679 251.806 188.588L256.603 184.817C256.891 184.563 257.123 184.25 257.28 183.899C257.438 183.549 257.519 183.169 257.518 182.784L257.233 178.214C257.229 177.415 257.493 176.638 257.98 176.005C258.761 175.064 259.509 174.082 260.206 173.057C260.436 172.756 260.73 172.51 261.068 172.339C261.405 172.167 261.777 172.074 262.155 172.066L265.246 172.217C265.613 172.216 265.972 172.114 266.284 171.923C266.597 171.732 266.851 171.459 267.019 171.133L269.917 164.632C269.99 164.48 270.031 164.314 270.038 164.146C270.045 163.977 270.017 163.809 269.957 163.652C269.896 163.494 269.804 163.351 269.686 163.231C269.568 163.11 269.426 163.015 269.27 162.952L266.75 161.885C266.443 161.738 266.194 161.493 266.041 161.189C265.889 160.885 265.843 160.538 265.91 160.205C266.141 159.179 266.318 158.141 266.439 157.097C266.563 156.307 266.926 155.573 267.481 154.997L271.731 151.082C272.005 150.799 272.211 150.456 272.332 150.08C272.453 149.704 272.486 149.306 272.428 148.915ZM251.932 173.628C246.733 177.719 241.751 176.602 240.811 171.108C239.87 165.614 243.331 157.895 248.522 153.804C253.713 149.713 258.703 150.83 259.643 156.324C260.584 161.818 257.132 169.537 251.932 173.628Z" fill="#37474F"/>
<path d="M242.172 95.8189L237.199 92.9545C237.079 92.8926 236.947 92.8604 236.812 92.8604C236.678 92.8604 236.545 92.8926 236.426 92.9545L227.438 97.0033C227.295 97.0716 227.139 97.1074 226.981 97.1084C226.822 97.1093 226.666 97.0752 226.522 97.0086C226.378 96.942 226.251 96.8445 226.15 96.7231C226.048 96.6016 225.975 96.4592 225.934 96.3061C225.451 94.7466 224.779 93.2517 223.935 91.8541C223.751 91.5246 223.644 91.1581 223.621 90.7816C223.597 90.405 223.659 90.0281 223.801 89.6785L229.79 77.5993C229.936 77.2911 229.962 76.9395 229.863 76.6132C229.763 76.287 229.546 76.0095 229.252 75.8353L222.759 72.0889C222.464 71.9198 222.116 71.8683 221.784 71.9446C221.452 72.0209 221.162 72.2194 220.97 72.5005L213.494 83.7481C213.262 84.0471 212.965 84.2899 212.626 84.4586C212.288 84.6273 211.915 84.7175 211.537 84.7225C210.667 84.6997 209.797 84.739 208.933 84.8401V76.6333L203.943 73.7521C203.809 73.6895 203.66 73.6636 203.513 73.6768C203.365 73.6901 203.224 73.7422 203.103 73.8277L193.023 79.6573C192.7 79.8694 192.425 80.1475 192.217 80.4731C192.008 80.7988 191.871 81.1649 191.814 81.5473L190.806 92.7781C190.691 93.5731 190.323 94.3097 189.756 94.8781C187.754 96.73 185.88 98.714 184.144 100.817C183.9 101.087 183.584 101.282 183.234 101.382C182.883 101.481 182.512 101.481 182.162 101.38L175.677 99.1117C175.342 99.0074 174.982 99.0177 174.653 99.1409C174.325 99.2641 174.047 99.4932 173.863 99.7921L166.437 112.644C166.272 112.955 166.214 113.311 166.274 113.658C166.333 114.004 166.506 114.321 166.765 114.559L171.964 119.045C172.229 119.296 172.418 119.617 172.507 119.971C172.596 120.325 172.583 120.697 172.468 121.044C171.512 123.595 170.732 126.207 170.133 128.865C169.925 129.64 169.471 130.327 168.84 130.822L159.6 137.315C159.296 137.555 159.047 137.856 158.869 138.199C158.691 138.542 158.588 138.92 158.566 139.306V150.965C158.557 151.11 158.585 151.255 158.648 151.386C158.711 151.518 158.808 151.63 158.928 151.712L163.9 154.585L171.284 151.082C171.561 151.659 171.87 152.22 172.208 152.762C172.392 153.092 172.499 153.458 172.523 153.835C172.546 154.212 172.484 154.589 172.342 154.938L166.353 167.017C166.205 167.323 166.177 167.673 166.275 167.998C166.373 168.324 166.59 168.6 166.882 168.773L173.384 172.528C173.68 172.696 174.029 172.746 174.361 172.668C174.693 172.59 174.983 172.39 175.173 172.108L182.641 160.885C182.869 160.585 183.164 160.34 183.502 160.172C183.84 160.003 184.212 159.913 184.59 159.911C186.224 159.946 187.858 159.782 189.453 159.424C189.605 159.381 189.764 159.372 189.92 159.399C190.075 159.426 190.223 159.487 190.352 159.578C190.48 159.669 190.587 159.787 190.664 159.925C190.741 160.062 190.787 160.216 190.797 160.373L191.788 170.176C191.791 170.313 191.828 170.448 191.896 170.568C191.963 170.688 192.059 170.79 192.175 170.865L197.139 173.72L203.103 164.968C203.425 164.755 203.699 164.477 203.906 164.151C204.113 163.825 204.249 163.46 204.304 163.078L205.312 151.847C205.375 151.483 205.526 151.14 205.752 150.847C205.977 150.554 206.27 150.321 206.606 150.167C209.569 148.887 212.238 147.014 214.452 144.665C214.708 144.404 215.029 144.217 215.382 144.123C215.735 144.028 216.107 144.03 216.459 144.127L220.441 145.53C220.776 145.637 221.137 145.629 221.468 145.508C221.798 145.386 222.078 145.157 222.264 144.858L229.681 132.006C229.847 131.697 229.906 131.341 229.848 130.994C229.79 130.647 229.619 130.33 229.362 130.091L225.96 127.168C225.697 126.911 225.507 126.589 225.41 126.235C225.312 125.88 225.311 125.507 225.405 125.152C226.142 122.104 226.453 118.969 226.329 115.836C226.336 115.454 226.426 115.078 226.593 114.735C226.76 114.391 227 114.087 227.295 113.845L236.535 107.352C236.836 107.113 237.083 106.812 237.26 106.471C237.437 106.129 237.539 105.754 237.56 105.37L241.97 100.086L242.172 95.8189ZM198.08 142.019C188.655 147.454 182.8 143.598 182.8 132.72C182.8 121.842 190.587 108.511 200.004 103.076C209.42 97.6417 215.124 101.59 215.124 112.468C215.124 123.346 207.48 136.592 198.08 142.036V142.019Z" fill="#263238"/>
<path d="M227.799 81.6059L229.781 77.6159C229.927 77.3077 229.953 76.9561 229.854 76.6298C229.754 76.3035 229.537 76.0261 229.244 75.8519L222.75 72.1055C222.455 71.9364 222.107 71.8849 221.775 71.9612C221.444 72.0375 221.153 72.236 220.961 72.5171L213.494 83.7479C213.356 83.934 213.189 84.0958 212.998 84.2267L221.356 89.0483L227.799 81.6059Z" fill="#455A64"/>
<path d="M169.561 130.065C169.365 130.354 169.124 130.609 168.847 130.821L159.607 137.315C159.362 137.507 159.154 137.743 158.994 138.012L164.631 141.263L176.869 134.299L169.561 130.065Z" fill="#455A64"/>
<path d="M175.164 99.0361C174.903 99.0459 174.649 99.12 174.423 99.2519C174.197 99.3838 174.008 99.5694 173.871 99.7921L166.445 112.644C166.29 112.932 166.231 113.261 166.277 113.585L172.678 117.281L182.842 103.53L175.164 99.0361Z" fill="#455A64"/>
<path d="M192.023 80.8752L199.936 85.4448L208.933 80.2536V76.6332L203.943 73.752C203.809 73.6894 203.66 73.6634 203.513 73.6767C203.365 73.69 203.224 73.742 203.103 73.8276L193.023 79.6572C192.576 79.9546 192.228 80.3787 192.023 80.8752Z" fill="#455A64"/>
<path d="M242.524 108.234V96.5999C242.547 96.4573 242.528 96.3112 242.469 96.1791C242.411 96.047 242.316 95.9346 242.195 95.8556C242.074 95.7765 241.933 95.7341 241.789 95.7335C241.644 95.733 241.503 95.7742 241.381 95.8523L232.393 99.9095C232.251 99.9778 232.095 100.014 231.938 100.015C231.78 100.015 231.624 99.9813 231.481 99.9146C231.338 99.8479 231.211 99.7503 231.111 99.6289C231.01 99.5074 230.937 99.3652 230.898 99.2123C230.408 97.6539 229.734 96.1593 228.89 94.7603C228.707 94.4308 228.599 94.0643 228.576 93.6878C228.553 93.3112 228.614 92.9342 228.756 92.5847L234.745 80.5055C234.892 80.1983 234.919 79.8474 234.822 79.5212C234.724 79.195 234.508 78.917 234.216 78.7415L227.714 74.9867C227.418 74.8204 227.069 74.7713 226.738 74.849C226.407 74.9267 226.117 75.1257 225.925 75.4067L218.458 86.6375C218.228 86.9382 217.931 87.1818 217.592 87.3493C217.253 87.5168 216.879 87.6038 216.5 87.6035C214.868 87.5756 213.238 87.742 211.645 88.0991C211.493 88.1418 211.333 88.1502 211.177 88.1236C211.021 88.097 210.873 88.036 210.744 87.9452C210.615 87.8544 210.507 87.7359 210.429 87.5983C210.351 87.4608 210.304 87.3076 210.293 87.1499L209.31 77.2799C209.315 77.1366 209.278 76.995 209.205 76.8717C209.132 76.7483 209.026 76.6482 208.898 76.583C208.77 76.5179 208.627 76.4904 208.484 76.5037C208.341 76.517 208.205 76.5706 208.092 76.6583L198.012 82.4879C197.689 82.6983 197.414 82.9748 197.206 83.2991C196.997 83.6234 196.86 83.9882 196.802 84.3695L195.794 95.6087C195.679 96.4031 195.31 97.1393 194.744 97.7087C192.743 99.5606 190.869 101.545 189.133 103.647C188.889 103.917 188.573 104.113 188.222 104.211C187.871 104.309 187.5 104.306 187.151 104.202L180.666 101.942C180.332 101.837 179.972 101.846 179.644 101.968C179.315 102.09 179.037 102.317 178.852 102.614L171.426 115.475C171.261 115.785 171.203 116.142 171.263 116.488C171.322 116.835 171.495 117.152 171.754 117.39L176.953 121.867C177.218 122.12 177.406 122.443 177.495 122.798C177.585 123.153 177.571 123.527 177.457 123.875C176.501 126.425 175.721 129.038 175.122 131.695C174.914 132.47 174.46 133.157 173.828 133.652L164.588 140.145C164.285 140.385 164.036 140.687 163.858 141.03C163.68 141.373 163.577 141.75 163.555 142.136V153.795C163.537 153.938 163.559 154.082 163.619 154.212C163.679 154.342 163.776 154.453 163.896 154.53C164.017 154.608 164.157 154.649 164.3 154.65C164.444 154.651 164.585 154.611 164.706 154.535L173.694 150.486C173.836 150.417 173.991 150.381 174.148 150.38C174.305 150.378 174.461 150.412 174.604 150.478C174.747 150.544 174.874 150.64 174.975 150.761C175.076 150.881 175.149 151.023 175.189 151.175C175.674 152.738 176.348 154.236 177.197 155.635C177.381 155.965 177.488 156.331 177.511 156.708C177.535 157.084 177.473 157.461 177.331 157.811L171.359 169.923C171.21 170.229 171.182 170.579 171.281 170.905C171.379 171.23 171.595 171.506 171.888 171.679L178.39 175.434C178.686 175.602 179.035 175.652 179.367 175.574C179.698 175.497 179.988 175.296 180.179 175.014L187.63 163.8C187.861 163.502 188.156 163.26 188.493 163.091C188.831 162.923 189.201 162.832 189.578 162.825C191.214 162.862 192.848 162.695 194.442 162.33C194.594 162.289 194.754 162.281 194.909 162.309C195.064 162.336 195.212 162.397 195.341 162.488C195.47 162.578 195.577 162.696 195.656 162.833C195.734 162.97 195.781 163.122 195.794 163.279L196.777 173.09C196.771 173.234 196.806 173.377 196.879 173.502C196.951 173.626 197.057 173.728 197.185 173.794C197.313 173.86 197.457 173.888 197.601 173.875C197.745 173.862 197.881 173.808 197.995 173.72L208.075 167.84C208.399 167.631 208.674 167.355 208.881 167.031C209.088 166.706 209.223 166.34 209.276 165.959L210.293 154.719C210.409 153.927 210.777 153.194 211.343 152.628C213.341 150.776 215.213 148.792 216.946 146.689C217.189 146.418 217.505 146.221 217.856 146.121C218.206 146.022 218.578 146.023 218.928 146.126L225.413 148.386C225.748 148.493 226.11 148.485 226.44 148.363C226.77 148.242 227.05 148.013 227.236 147.714L234.661 134.853C234.826 134.544 234.883 134.189 234.824 133.844C234.764 133.499 234.592 133.183 234.334 132.947L229.151 128.52C228.886 128.269 228.698 127.948 228.608 127.593C228.519 127.239 228.533 126.867 228.647 126.521C229.596 123.965 230.377 121.35 230.982 118.692C231.192 117.918 231.646 117.231 232.276 116.735L241.516 110.241C241.817 109.998 242.063 109.693 242.236 109.347C242.41 109 242.508 108.621 242.524 108.234ZM203.044 144.9C193.619 150.335 185.983 145.925 185.983 135.047C185.983 124.169 193.619 110.939 203.044 105.504C212.468 100.069 220.079 104.471 220.079 115.349C220.079 126.227 212.46 139.44 203.044 144.9Z" fill="#37474F"/>
<path d="M242.172 95.8186C242.049 95.7525 241.912 95.7178 241.773 95.7178C241.634 95.7178 241.496 95.7525 241.374 95.8186L232.386 99.8674C232.244 99.9358 232.089 99.972 231.932 99.9734C231.774 99.9748 231.619 99.9414 231.476 99.8756C231.333 99.8098 231.206 99.7131 231.105 99.5927C231.004 99.4722 230.931 99.3308 230.891 99.1786C230.556 98.0901 230.126 97.0333 229.605 96.0202L236.409 92.9543C236.53 92.891 236.664 92.8579 236.8 92.8579C236.936 92.8579 237.07 92.891 237.191 92.9543L242.172 95.8186Z" fill="#455A64"/>
<path d="M312.935 314.723V313.765C312.557 314.891 310.81 319.712 308.155 322.165C306.047 324.089 303.174 326.315 302.435 328.457C301.696 330.599 306.442 331.43 308.407 331.086C310.7 330.683 313.657 329.406 315.27 327.398C316.404 326.012 317.126 324.358 317.933 323.266C318.739 322.174 320.612 320.947 321.049 319.679C321.293 318.982 321.007 317.461 320.663 316.168C320.318 314.874 320.024 313.648 319.613 313.799V314.53C318.657 315.282 317.469 315.68 316.253 315.655C315.295 315.664 312.926 315.47 312.935 314.723Z" fill="#263238"/>
<path d="M306.248 323.828C306.903 323.24 307.558 322.669 308.155 322.148C310.011 320.468 311.422 317.595 312.229 315.638C312.692 314.522 312.931 313.327 312.934 312.119V308.28H319.612V314.479V314.647C319.293 316.033 316.252 319.729 314.488 322.14C313.312 323.753 311.128 325.811 308.44 326.163C305.895 326.525 304.61 325.735 306.248 323.828Z" fill="#FFA8A7"/>
<path d="M286.861 308.137V307.18C286.483 308.297 284.735 313.127 282.081 315.58C279.973 317.503 277.1 319.721 276.369 321.863C275.638 324.005 280.367 324.845 282.341 324.5C284.626 324.089 287.591 322.82 289.196 320.813C290.33 319.418 291.052 317.772 291.867 316.672C292.682 315.571 294.538 314.362 294.975 313.093C295.219 312.396 294.933 310.867 294.597 309.582C294.261 308.297 293.95 307.104 293.547 307.213V307.944C292.589 308.693 291.403 309.09 290.187 309.07C289.221 309.07 286.852 308.876 286.861 308.137Z" fill="#263238"/>
<path d="M280.175 317.234C280.83 316.654 281.485 316.083 282.082 315.554C283.938 313.874 285.349 311.001 286.156 309.044C286.624 307.93 286.864 306.733 286.861 305.524V301.719H293.581V307.918V308.086C293.254 309.472 290.221 313.168 288.449 315.579C287.281 317.192 285.089 319.242 282.409 319.603C279.73 319.964 278.537 319.141 280.175 317.234Z" fill="#FFA8A7"/>
<path d="M318.285 210.84C323.468 222.163 318.1 262.029 318.1 262.029C318.251 263.869 320.351 267.481 321.141 275.562C322.065 285.113 319.688 309.095 319.688 309.095C318.673 309.68 317.532 310.011 316.361 310.058C315.19 310.105 314.026 309.866 312.968 309.363C312.968 309.363 306.592 273.243 305.408 263.751C304.358 255.461 302.35 237.241 302.35 237.241L296.655 263.709C297.487 266.378 298.092 269.112 298.461 271.883C298.999 277.469 293.589 303.475 293.589 303.475C293.589 303.475 291.279 304.315 286.869 303.677C286.869 303.677 284.954 269.169 284.45 262.441C283.61 251.135 286.6 215.88 288.65 209.185L318.285 210.84Z" fill="#37474F"/>
<path d="M302.308 237.241L300.628 226.724C300.628 226.724 293.513 225.254 290.287 222.222C292.512 224.83 295.421 226.765 298.687 227.808L300.569 235.905L297.284 260.4L302.308 237.241Z" fill="#263238"/>
<path d="M291.355 203.708C295.277 190.655 300.275 171.217 298.394 171.217C296.512 171.217 293.606 171.041 291.481 173.174C287.281 177.374 286.533 185.169 285.651 189.621C284.769 194.073 284.147 197.576 282.745 204.17C281.686 209.21 280.384 215.233 278.494 219.097C278.141 219.788 277.542 220.322 276.814 220.592C274.916 221.365 274.042 222.348 272.522 223.473C271.329 224.313 270.422 224.465 270.497 224.826C270.627 225.228 270.905 225.567 271.274 225.774C271.643 225.982 272.077 226.042 272.488 225.943C273.406 225.755 274.297 225.456 275.143 225.053C274.283 226.497 273.197 227.793 271.925 228.891C269.019 231.411 268.565 233.201 273.429 234.083C276.461 234.637 279.208 233.184 282.669 226.892C283.982 224.6 285.13 222.216 286.105 219.761C288.423 213.36 290.17 207.656 291.355 203.708Z" fill="#FFA8A7"/>
<path d="M309.121 171.528C315.765 171.981 316.227 175.19 317.89 178.701C319.111 181.403 319.225 184.476 318.21 187.261L313.573 200.651C313.573 200.651 315.748 205.892 318.26 210.84C306.643 217.325 292.136 213.923 288.642 209.16C288.499 208.16 289.389 200.315 289.944 195.191C287.902 190.05 287.356 186.791 288.222 183.431C289.826 177.131 296.05 170.999 298.797 171.225L309.121 171.528Z" fill="#821717"/>
<path d="M302.762 166.017H305.341C308.941 166.015 312.392 164.584 314.937 162.039C317.483 159.494 318.913 156.043 318.916 152.443C318.916 148.822 317.478 145.349 314.918 142.788C312.359 140.227 308.887 138.787 305.266 138.785H302.83C299.209 138.787 295.737 140.227 293.177 142.788C290.618 145.349 289.18 148.822 289.18 152.443C289.182 156.044 290.614 159.497 293.161 162.042C295.708 164.588 299.162 166.017 302.762 166.017Z" fill="#263238"/>
<path d="M326.19 173.174C324.062 173.174 322.022 172.329 320.518 170.825C319.013 169.32 318.168 167.28 318.168 165.152V147.974C320.296 147.974 322.336 148.819 323.84 150.324C325.345 151.828 326.19 153.869 326.19 155.996V173.174Z" fill="#263238"/>
<path d="M319.637 144.925L317.621 148.159C317.827 148.302 318.059 148.401 318.304 148.452C318.549 148.502 318.802 148.502 319.047 148.452C319.292 148.402 319.524 148.302 319.729 148.159C319.935 148.017 320.109 147.834 320.242 147.622C320.508 147.181 320.593 146.654 320.48 146.152C320.368 145.65 320.066 145.21 319.637 144.925Z" fill="#263238"/>
<path d="M294.068 144.799C292.497 145.731 290.556 149.679 290.708 157.962C290.876 164.976 293.144 166.706 294.286 167.202C295.428 167.697 297.646 167.395 299.78 167.042V171.242C299.78 171.242 296.814 174.678 296.999 176.61C297.184 178.542 301.275 179.004 304.047 177.114C305.843 175.82 307.384 174.206 308.591 172.351V162.187C308.816 162.463 309.094 162.692 309.408 162.86C309.723 163.028 310.067 163.132 310.422 163.166C310.777 163.2 311.135 163.162 311.476 163.056C311.816 162.95 312.132 162.777 312.405 162.548C314.765 160.977 314.858 157.096 313.48 155.702C312.102 154.308 309.146 154.744 308.591 156.676C308.591 156.676 305.172 156.794 300.628 154.299C298.866 153.341 297.355 151.981 296.215 150.331C295.075 148.681 294.34 146.786 294.068 144.799Z" fill="#FFA8A7"/>
<path d="M299.367 156.24C299.359 156.358 299.375 156.477 299.413 156.589C299.451 156.701 299.51 156.804 299.588 156.893C299.666 156.982 299.761 157.055 299.867 157.107C299.974 157.159 300.089 157.19 300.207 157.198C300.44 157.203 300.667 157.119 300.84 156.963C301.013 156.806 301.12 156.59 301.14 156.358C301.151 156.124 301.069 155.895 300.911 155.722C300.754 155.548 300.534 155.445 300.3 155.434C300.066 155.422 299.837 155.505 299.664 155.662C299.49 155.82 299.387 156.04 299.376 156.274L299.367 156.24Z" fill="#263238"/>
<path d="M298.343 162.12L296.293 162.775C296.329 162.912 296.394 163.041 296.481 163.153C296.569 163.265 296.679 163.359 296.804 163.427C296.929 163.495 297.066 163.538 297.208 163.551C297.35 163.565 297.493 163.549 297.629 163.506C297.903 163.411 298.131 163.215 298.264 162.956C298.397 162.698 298.425 162.398 298.343 162.12Z" fill="#F28F8F"/>
<path d="M292.127 153.485L293.917 152.25C293.842 152.129 293.743 152.025 293.627 151.943C293.51 151.862 293.378 151.806 293.239 151.777C293.099 151.749 292.956 151.749 292.817 151.779C292.678 151.808 292.546 151.865 292.43 151.947C292.191 152.115 292.027 152.369 291.971 152.655C291.914 152.942 291.97 153.239 292.127 153.485Z" fill="#263238"/>
<path d="M292.538 155.559C292.527 155.793 292.609 156.022 292.767 156.195C292.924 156.369 293.144 156.472 293.378 156.483C293.612 156.494 293.841 156.412 294.014 156.255C294.187 156.097 294.291 155.877 294.302 155.643C294.311 155.525 294.297 155.406 294.259 155.293C294.222 155.181 294.162 155.077 294.084 154.988C294.005 154.898 293.91 154.826 293.803 154.774C293.697 154.722 293.581 154.692 293.462 154.686C293.224 154.681 292.994 154.77 292.821 154.934C292.649 155.097 292.547 155.322 292.538 155.559Z" fill="#263238"/>
<path d="M296.848 155.056L296.713 160.364L293.916 159.499L296.848 155.056Z" fill="#F28F8F"/>
<path d="M299.812 167.051C302.064 166.748 306.709 165.421 307.431 163.582C307.145 164.513 306.576 165.333 305.802 165.925C304.416 167.118 299.812 168.445 299.812 168.445V167.051Z" fill="#F28F8F"/>
<path opacity="0.1" d="M306.171 212.1C307.081 211.891 307.941 211.503 308.699 210.958C309.457 210.412 310.098 209.721 310.586 208.925C311.073 208.128 311.397 207.242 311.537 206.319C311.678 205.396 311.633 204.454 311.405 203.549C311.363 203.406 311.321 203.28 311.287 203.179C311.128 202.693 310.809 202.275 310.382 201.992C309.955 201.71 309.445 201.581 308.935 201.625C309.68 201.129 310.319 200.491 310.816 199.747C311.313 199.003 311.659 198.168 311.833 197.291L313.244 190.21C313.244 190.21 310.623 181.894 310.892 179.038L317.562 179.424L318.402 180.029C319.11 182.398 319.045 184.931 318.217 187.261L313.58 200.651C313.58 200.651 315.756 205.892 318.267 210.84C314.49 212.877 310.32 214.082 306.038 214.371C301.757 214.661 297.463 214.03 293.445 212.52C297.676 213.188 301.994 213.045 306.171 212.1Z" fill="black"/>
<path d="M315.773 205.615C313.32 206.271 305.852 207.153 305.298 201.911C305.013 197.735 305.013 193.545 305.298 189.37C305.638 183.177 307.869 177.237 311.69 172.351L311.993 171.982C311.993 171.982 310.909 171.1 308.633 171.511C305.427 174.77 303.158 178.833 302.064 183.271C298.704 182.784 294.504 182.431 291.698 182.213C293.005 177.715 295.889 173.838 299.821 171.293C298.87 170.925 297.819 170.907 296.856 171.243C292.863 173.67 289.935 177.516 288.658 182.011C285.986 189.412 286.087 216.989 286.138 226.783L290.749 219.442H320.149C319.78 208.874 315.773 205.615 315.773 205.615Z" fill="#37474F"/>
<path d="M330.12 198.45C330.12 198.45 326.987 191.73 322.628 181.826C319.478 174.653 318.78 173.031 313.766 172.259L312.002 171.981C309.624 179.785 311.262 183.313 314.387 188.655L320.57 200.634C323.048 200.147 330.204 199.197 330.12 198.45Z" fill="#FFA8A7"/>
<path d="M320.596 200.634C322.427 204.322 323.956 206.606 326.224 207.203C328.492 207.799 346.846 207.589 346.846 207.589V200.634L329.34 197.971L320.596 200.634Z" fill="#FFA8A7"/>
<path d="M357.362 276.998H328.441V333.354C328.306 335.588 329.701 337.848 332.641 339.553C338.294 342.82 347.458 342.82 353.111 339.553C355.942 337.923 357.353 335.781 357.353 333.673L357.362 276.998Z" fill="#821717"/>
<path d="M354.322 271.874C351.121 269.783 353.112 264.692 353.112 264.692H332.641C332.641 264.692 334.573 269.732 331.432 271.874C327.013 275.159 327.408 279.888 332.625 282.904C338.278 286.171 347.442 286.171 353.095 282.904C358.337 279.888 358.732 275.159 354.322 271.874Z" fill="#821717"/>
<path opacity="0.05" d="M354.322 271.874C351.121 269.783 353.112 264.692 353.112 264.692H332.641C332.641 264.692 334.573 269.732 331.432 271.874C327.013 275.159 327.408 279.888 332.625 282.904C338.278 286.171 347.442 286.171 353.095 282.904C358.337 279.888 358.732 275.159 354.322 271.874Z" fill="black"/>
<path opacity="0.05" d="M352.557 267.204C352.642 266.344 352.831 265.498 353.12 264.684H332.641C332.925 265.499 333.109 266.345 333.187 267.204C338.689 270.06 347.055 270.06 352.557 267.204Z" fill="black"/>
<path d="M357.361 254.848H355.681C354.944 254.068 354.094 253.403 353.161 252.874C347.508 249.614 338.343 249.614 332.69 252.874C331.757 253.403 330.907 254.068 330.17 254.848H328.49V258.787C328.49 260.929 329.901 263.063 332.732 264.667C338.385 267.935 347.55 267.935 353.203 264.667C356.034 263.038 357.445 260.904 357.445 258.787L357.361 254.848Z" fill="#821717"/>
<path d="M332.641 260.753C338.294 264.02 347.459 264.02 353.112 260.753C358.765 257.485 358.765 252.201 353.112 248.934C347.459 245.666 338.294 245.675 332.641 248.934C326.988 252.193 326.996 257.493 332.641 260.753Z" fill="#821717"/>
<path opacity="0.4" d="M332.641 260.753C338.294 264.02 347.459 264.02 353.112 260.753C358.765 257.485 358.765 252.201 353.112 248.934C347.459 245.666 338.294 245.675 332.641 248.934C326.988 252.193 326.996 257.493 332.641 260.753Z" fill="white"/>
<path opacity="0.2" d="M342.897 335.857C342.148 335.857 341.43 335.56 340.901 335.031C340.372 334.501 340.074 333.783 340.074 333.035V292.774C340.074 292.025 340.372 291.307 340.901 290.778C341.43 290.249 342.148 289.951 342.897 289.951C343.644 289.953 344.359 290.252 344.887 290.781C345.414 291.31 345.711 292.026 345.711 292.774V333.035C345.711 333.782 345.414 334.498 344.887 335.028C344.359 335.557 343.644 335.855 342.897 335.857Z" fill="black"/>
<path opacity="0.2" d="M352.532 334.152C351.18 334.647 350.088 333.95 350.088 332.598V291.589C350.133 290.854 350.387 290.148 350.82 289.552C351.253 288.957 351.847 288.498 352.532 288.229C353.885 287.742 354.977 288.431 354.977 289.783V330.8C354.931 331.534 354.677 332.239 354.244 332.833C353.811 333.427 353.217 333.884 352.532 334.152Z" fill="black"/>
<path opacity="0.2" d="M333.253 334.152C334.605 334.647 335.697 333.95 335.697 332.598V291.589C335.652 290.854 335.398 290.148 334.965 289.552C334.532 288.957 333.938 288.498 333.253 288.229C331.901 287.742 330.809 288.431 330.809 289.783V330.8C330.854 331.534 331.109 332.239 331.542 332.833C331.975 333.427 332.568 333.884 333.253 334.152Z" fill="black"/>
<path d="M346.846 153.476L340.966 150.066L337.236 167.614C337.236 167.614 340.966 173.704 340.966 177.643V252.504L344.872 257.074L346.88 255.914V181.062C346.88 177.122 350.601 175.333 350.601 175.333L346.846 153.476Z" fill="#E0E0E0"/>
<path d="M344.838 154.636L338.958 151.217L335.229 168.764C335.229 168.764 338.958 174.863 338.958 178.844V253.68L344.838 257.099V182.213C344.838 178.273 348.568 176.484 348.568 176.484L344.838 154.636Z" fill="#EBEBEB"/>
<path d="M338.932 151.217L340.931 150.066L346.844 153.476L344.837 154.636L338.932 151.217Z" fill="#FAFAFA"/>
<path d="M346.846 153.476L344.838 154.635L348.567 176.484L350.567 175.333L346.846 153.476Z" fill="#F5F5F5"/>
<path d="M346.845 195.115C347.147 193.796 349.231 193.057 349.021 195.258C348.811 197.459 349.861 198.996 350.171 200.021C350.801 202.18 350.659 206.254 349.81 207.06C349.373 207.573 348.828 207.983 348.213 208.26C347.599 208.537 346.931 208.676 346.257 208.664C344.622 208.578 343.063 207.945 341.83 206.867C340.469 205.808 339.016 199.727 342.175 200.584C346.87 201.869 346.845 198.492 346.845 198.492V195.115Z" fill="#FFA8A7"/>
<path d="M192.41 215.04C195.711 215.704 197.669 218.131 201.65 224.28C205.632 230.429 211.797 241.08 211.797 241.08L227.237 246.96L226.573 253.907C226.573 253.907 209.731 250.916 207.421 249.203C205.111 247.489 196.199 234.57 196.199 234.57L192.41 215.04Z" fill="#FFA8A7"/>
<path d="M189.646 213.789C193.074 214.393 196.467 215.225 198.576 218.493C200.684 221.76 208.362 234.243 208.362 234.243C208.362 234.243 205.564 240.811 200.457 241.803L193.116 231.227L189.646 213.789Z" fill="#E6E6E6"/>
<path d="M177.081 214.066C175.905 214.351 174.721 214.427 173.679 214.637C168.58 215.662 167.639 218.308 167.513 224.473C167.312 234.78 167.513 258.636 167.513 258.636C172.058 261.937 188.841 263.962 198.4 256.956C198.4 256.956 197.913 229.513 197.913 224.65C197.913 219.786 195.217 213.948 187.757 213.511L177.081 214.066Z" fill="#F5F5F5"/>
<path d="M166.304 354.018H172.898V342.728H166.304V354.018Z" fill="#FFA8A7"/>
<path d="M193.285 345.467L199.871 345.694L200.207 333.749L193.285 333.522V345.467Z" fill="#FFA8A7"/>
<path d="M199.333 256.981L198.149 230.16L177.401 233.52C177.453 237.76 177.206 241.999 176.662 246.204C176.275 249.514 173.1 254.025 167.472 255.511C167.231 259.845 167.214 264.188 167.422 268.523C167.523 271.648 166.053 306.197 166.053 306.197C165.901 308.011 164.154 311.237 164.02 317.755C163.827 327.222 166.027 348.357 166.027 348.357C167.166 348.917 168.414 349.22 169.682 349.245C170.951 349.269 172.21 349.015 173.369 348.499C173.369 348.499 177.804 318.125 178.989 308.759C180.013 300.586 184.323 277.587 184.323 277.587L189.363 305.231C188.589 308.668 188.306 312.198 188.523 315.714C188.825 320.04 192.84 341.754 192.84 341.754C193.991 342.402 195.269 342.789 196.585 342.889C197.902 342.99 199.224 342.8 200.459 342.334C200.459 342.334 200.845 308.263 200.929 304.282C201.039 299.771 199.333 256.981 199.333 256.981Z" fill="#37474F"/>
<path d="M198.149 230.16C197.931 224.86 197.191 219.963 192.622 215.376C191.372 214.141 189.683 213.452 187.926 213.461H186.943C186.943 213.461 191.53 217.098 193.327 222.382C194.315 225.725 194.804 229.195 194.781 232.68L198.149 230.16Z" fill="#37474F"/>
<path d="M172.906 350.759V349.818C173.259 349.818 173.478 350.163 173.612 351.011C173.713 351.616 173.797 352.078 173.998 352.876C174.288 354.026 174.673 355.15 175.149 356.236C176.082 358.538 176.829 359.386 178.996 362.074C179.731 362.815 180.416 363.603 181.046 364.434C181.449 365.14 181.584 367.114 180.912 367.568C178.392 369.248 174.637 369.248 171.966 368.492C170.968 368.213 170.071 367.655 169.382 366.882C168.692 366.109 168.239 365.155 168.076 364.132C167.984 363.519 168.018 362.897 167.95 362.284C167.708 360.89 167.131 359.576 166.27 358.454C165.778 357.804 165.353 357.106 165.002 356.37C164.448 355.018 164.893 353.489 165.246 352.17C165.556 351.003 165.884 349.718 166.287 349.827V350.549C167.224 351.288 168.387 351.68 169.58 351.658C170.571 351.692 172.915 351.498 172.906 350.759Z" fill="#263238"/>
<path d="M199.921 343.661C200.266 343.661 200.543 344.156 201.299 344.971C202.424 346.114 203.733 347.06 205.171 347.768C207.641 349.003 212.446 350.902 214.621 351.884C215.974 352.489 215.915 354.136 214.512 355.068C213.109 356 209.716 356.672 205.65 355.765C203.433 355.27 200.551 353.245 198.72 353.329C196.889 353.413 193.479 353.413 192.135 352.489C190.791 351.565 191.295 349.583 191.706 347.878C192.126 346.013 192.639 343.115 193.26 343.241V343.879C194.05 345.08 198.141 345.559 199.888 344.719L199.921 343.661Z" fill="#263238"/>
<path d="M184.322 277.604C187.731 276.545 190.865 274.749 193.503 272.345C193.503 272.345 191.731 275.655 186.464 278.746L188.984 303.333L184.322 277.604Z" fill="#263238"/>
<path d="M188.765 201.214C193.77 201.214 197.828 197.156 197.828 192.15C197.828 187.144 193.77 183.086 188.765 183.086C183.759 183.086 179.701 187.144 179.701 192.15C179.701 197.156 183.759 201.214 188.765 201.214Z" fill="#263238"/>
<path d="M173.1 198.593C173.1 198.593 174.57 205.489 175.158 206.623C175.55 207.322 176.197 207.843 176.964 208.076L176.854 203.23L173.1 198.593Z" fill="#263238"/>
<path d="M174.939 188.706C174.426 188.647 173.906 188.706 173.418 188.878C172.931 189.05 172.489 189.33 172.125 189.697C170.916 190.932 171.588 194.805 173.1 198.593L175.863 198.912L174.939 188.706Z" fill="#263238"/>
<path d="M176.694 198.912C176.14 199.24 175.35 198.173 174.661 197.459C173.973 196.745 171.747 195.779 170.629 198.114C169.512 200.449 171.612 203.667 173.376 204.221C176.4 205.17 176.854 203.23 176.854 203.23L177.081 214.494C180.852 219.324 191.302 218.913 186.951 213.864V210.504C188.3 210.722 189.669 210.792 191.033 210.714C193.259 210.37 194.662 208.614 195.334 206.203C196.426 202.331 196.837 199.198 195.913 191.579C194.905 183.229 185.195 183.179 179.953 186.447C174.712 189.714 176.694 198.912 176.694 198.912Z" fill="#FFA8A7"/>
<path d="M177.392 235.2C177.544 228.346 175.981 218.182 173.68 214.67C174.744 214.184 175.917 213.986 177.082 214.099C177.082 214.099 181.399 220.819 181.214 235.2H177.392Z" fill="#37474F"/>
<path d="M176.694 199.845C176.416 199.845 175.35 198.089 174.661 197.459C173.703 196.619 174.938 188.706 174.938 188.706C174.607 188.012 174.494 187.234 174.612 186.474C174.731 185.715 175.075 185.008 175.602 184.447C176.912 183.011 178.735 181.247 184.682 181.927C188.882 182.423 193.536 183.75 197.282 181.927C197.624 183.14 197.597 184.428 197.203 185.625C196.809 186.822 196.068 187.874 195.073 188.647C195.073 188.647 193.72 189.487 190.176 189.949C186.898 190.197 183.605 190.135 180.339 189.765C179.314 189.622 179.096 190.605 178.542 193.343C178.08 195.771 177.626 199.828 176.694 199.845Z" fill="#263238"/>
<path d="M174.948 189.319L171.588 187.522C171.695 187.298 171.846 187.099 172.032 186.935C172.218 186.771 172.435 186.646 172.67 186.567C172.905 186.489 173.153 186.459 173.4 186.478C173.648 186.498 173.888 186.567 174.108 186.682C174.56 186.929 174.899 187.342 175.055 187.833C175.212 188.323 175.173 188.856 174.948 189.319Z" fill="#263238"/>
<path d="M186.943 210.538C186.943 210.538 181.962 209.538 180.223 208.614C179.203 208.078 178.367 207.251 177.82 206.237C178.084 207.254 178.549 208.209 179.19 209.042C180.458 210.664 186.943 211.865 186.943 211.865V210.538Z" fill="#F28F8F"/>
<path d="M186.75 198.299C186.742 198.495 186.676 198.684 186.561 198.843C186.446 199.002 186.287 199.124 186.103 199.193C185.919 199.262 185.719 199.275 185.528 199.231C185.337 199.187 185.163 199.088 185.027 198.946C184.892 198.804 184.802 198.625 184.767 198.432C184.733 198.239 184.756 198.04 184.834 197.86C184.912 197.679 185.042 197.526 185.206 197.419C185.371 197.312 185.563 197.256 185.759 197.257C185.893 197.261 186.024 197.29 186.146 197.344C186.268 197.398 186.378 197.476 186.47 197.573C186.563 197.67 186.635 197.783 186.683 197.908C186.731 198.033 186.754 198.165 186.75 198.299Z" fill="#263238"/>
<path d="M185.7 194.536L183.566 195.712C183.417 195.422 183.385 195.086 183.478 194.773C183.57 194.46 183.779 194.195 184.062 194.032C184.202 193.955 184.356 193.907 184.515 193.891C184.674 193.874 184.835 193.89 184.988 193.937C185.141 193.984 185.282 194.061 185.405 194.164C185.527 194.267 185.627 194.394 185.7 194.536Z" fill="#263238"/>
<path d="M186.481 204.557L188.757 205.397C188.708 205.55 188.628 205.692 188.523 205.813C188.418 205.935 188.29 206.034 188.145 206.104C188.001 206.175 187.844 206.216 187.683 206.224C187.523 206.232 187.362 206.208 187.211 206.153C186.907 206.033 186.661 205.799 186.525 205.502C186.389 205.205 186.373 204.866 186.481 204.557Z" fill="#F28F8F"/>
<path d="M195.644 195.368L193.695 193.864C193.786 193.734 193.903 193.623 194.037 193.539C194.172 193.455 194.323 193.399 194.48 193.375C194.637 193.35 194.797 193.358 194.951 193.397C195.105 193.437 195.249 193.507 195.375 193.604C195.636 193.808 195.809 194.104 195.859 194.432C195.909 194.76 195.832 195.095 195.644 195.368Z" fill="#263238"/>
<path d="M195.039 198.013C195.031 198.209 194.965 198.399 194.85 198.558C194.735 198.717 194.576 198.838 194.392 198.907C194.208 198.976 194.008 198.989 193.817 198.946C193.626 198.902 193.452 198.803 193.316 198.66C193.181 198.518 193.091 198.339 193.056 198.146C193.022 197.953 193.045 197.754 193.123 197.574C193.201 197.394 193.331 197.241 193.495 197.134C193.66 197.027 193.852 196.97 194.048 196.972C194.317 196.98 194.572 197.095 194.757 197.29C194.943 197.484 195.044 197.744 195.039 198.013Z" fill="#263238"/>
<path d="M189.707 197.257L190.026 203.255L193.159 202.188L189.707 197.257Z" fill="#F28F8F"/>
<path d="M237.266 208.396C237.266 206.548 238.812 203.969 238.341 202.6L234.931 200.626L228.093 217.804L221.121 221.769L217.677 216.729L227.984 201.348L224.574 199.383C224.145 199.584 223.734 199.803 223.263 200.055C215.477 204.482 209.118 215.385 209.059 224.415C209.059 228.968 210.613 232.16 213.183 233.655L216.543 235.612L216.938 234.587H217.19V314.513C212.402 319.847 209.067 327.34 209.025 333.833C209.025 337.193 209.865 339.848 211.369 341.595L214.779 343.569L218.198 324.417L225.17 320.452L228.614 325.492L221.76 342.872L225.17 344.837C225.17 344.837 237.216 326.861 237.275 317.84C237.364 315.584 236.857 313.344 235.805 311.346L236.645 310.632L233.285 308.675C232.017 307.925 230.555 307.571 229.085 307.659V227.741C233.889 222.407 237.224 214.923 237.266 208.396Z" fill="#455A64"/>
<path d="M217.225 314.521L220.635 316.495V236.569L217.225 234.595V314.521Z" fill="#263238"/>
<path d="M232.513 309.641V229.715C237.301 224.381 240.636 216.888 240.678 210.395C240.678 207.035 239.838 204.381 238.343 202.633L231.505 219.811L224.533 223.776L221.09 218.736L227.986 201.382C227.555 201.583 227.118 201.81 226.675 202.062C218.889 206.489 212.53 217.392 212.471 226.422C212.429 233.041 215.781 236.788 220.636 236.595V316.521C215.848 321.846 212.513 329.339 212.471 335.841C212.471 339.201 213.311 341.855 214.815 343.611L221.644 326.424L228.616 322.468L232.06 327.508L225.163 344.854C225.6 344.652 226.003 344.434 226.474 344.182C234.261 339.755 240.619 328.852 240.678 319.822C240.72 313.194 237.369 309.448 232.513 309.641Z" fill="#37474F"/>
<path d="M227.128 323.308L228.615 322.468L232.059 327.491L225.162 344.837L221.752 342.871L228.648 325.517L227.128 323.308Z" fill="#263238"/>
<path d="M232.512 243.936C232.512 245.222 230.563 246.65 229.152 247.548C227.74 248.447 225.909 249.699 226.632 252.294C226.758 252.8 226.99 253.273 227.313 253.683C227.635 254.093 228.04 254.43 228.501 254.673C228.963 254.916 229.47 255.058 229.99 255.091C230.511 255.124 231.032 255.047 231.52 254.865C232.375 254.492 233.117 253.902 233.673 253.154C234.229 252.405 234.578 251.524 234.687 250.598C235.04 248.204 235.846 242.475 232.57 241.803L232.512 243.936Z" fill="#FFA8A7"/>
<path d="M154.25 250.807C159.928 225.313 163.49 219.727 171.386 216.812L170.311 232.134C170.311 232.134 162.902 248.64 161.785 254.52C160.802 259.653 159.701 266.104 159.878 270.48C159.912 271.256 160.232 271.993 160.777 272.547C162.23 274.059 162.641 275.327 163.599 277.007C164.338 278.326 165.136 278.805 164.918 279.107C164.634 279.436 164.235 279.642 163.803 279.683C163.37 279.724 162.939 279.595 162.599 279.325C161.821 278.769 161.113 278.121 160.491 277.393C160.699 279.097 161.178 280.756 161.911 282.307C163.591 285.86 163.229 287.7 158.357 286.507C155.3 285.768 153.317 283.282 152.738 275.999C152.463 273.317 152.382 270.62 152.494 267.927C152.998 260.997 153.334 254.906 154.25 250.807Z" fill="#FFA8A7"/>
<path d="M172.075 215.04C170.052 215.108 168.083 215.714 166.372 216.796C164.389 218.131 161.088 223.516 158.997 230.177C156.905 236.838 155.805 240.534 155.805 240.534C155.805 240.534 159.232 245.75 166.624 243.692C166.624 243.692 170.782 233.276 170.547 233.94C170.521 233.957 176.057 223.684 172.075 215.04Z" fill="#E6E6E6"/>
</svg>
